<svg width="84" height="123" viewBox="0 0 84 123" fill="none" xmlns="http://www.w3.org/2000/svg">
<g id="Logo">
<rect id="Rectangle 20" width="84" height="123" fill="url(#paint0_linear_279_15)"/>
<path id="Bb" d="M7.63636 85V38.4545H23.9091C27.1515 38.4545 29.8258 39.0152 31.9318 40.1364C34.0379 41.2424 35.6061 42.7348 36.6364 44.6136C37.6667 46.4773 38.1818 48.5455 38.1818 50.8182C38.1818 52.8182 37.8258 54.4697 37.1136 55.7727C36.4167 57.0758 35.4924 58.1061 34.3409 58.8636C33.2045 59.6212 31.9697 60.1818 30.6364 60.5455V61C32.0606 61.0909 33.4924 61.5909 34.9318 62.5C36.3712 63.4091 37.5758 64.7121 38.5455 66.4091C39.5152 68.1061 40 70.1818 40 72.6364C40 74.9697 39.4697 77.0682 38.4091 78.9318C37.3485 80.7955 35.6742 82.2727 33.3864 83.3636C31.0985 84.4545 28.1212 85 24.4545 85H7.63636ZM13.2727 80H24.4545C28.1364 80 30.75 79.2879 32.2955 77.8636C33.8561 76.4242 34.6364 74.6818 34.6364 72.6364C34.6364 71.0606 34.2348 69.6061 33.4318 68.2727C32.6288 66.9242 31.4848 65.8485 30 65.0455C28.5152 64.2273 26.7576 63.8182 24.7273 63.8182H13.2727V80ZM13.2727 58.9091H23.7273C25.4242 58.9091 26.9545 58.5758 28.3182 57.9091C29.697 57.2424 30.7879 56.303 31.5909 55.0909C32.4091 53.8788 32.8182 52.4545 32.8182 50.8182C32.8182 48.7727 32.1061 47.0379 30.6818 45.6136C29.2576 44.1742 27 43.4545 23.9091 43.4545H13.2727V58.9091ZM49.2614 85V38.4545H54.625V55.6364H55.0795C55.4735 55.0303 56.0189 54.2576 56.7159 53.3182C57.428 52.3636 58.4432 51.5152 59.7614 50.7727C61.0947 50.0152 62.8977 49.6364 65.1705 49.6364C68.1098 49.6364 70.7008 50.3712 72.9432 51.8409C75.1856 53.3106 76.9356 55.3939 78.1932 58.0909C79.4508 60.7879 80.0795 63.9697 80.0795 67.6364C80.0795 71.3333 79.4508 74.5379 78.1932 77.25C76.9356 79.947 75.1932 82.0379 72.9659 83.5227C70.7386 84.9924 68.1705 85.7273 65.2614 85.7273C63.0189 85.7273 61.2235 85.3561 59.875 84.6136C58.5265 83.8561 57.4886 83 56.7614 82.0455C56.0341 81.0758 55.4735 80.2727 55.0795 79.6364H54.4432V85H49.2614ZM54.5341 67.5455C54.5341 70.1818 54.9205 72.5076 55.6932 74.5227C56.4659 76.5227 57.5947 78.0909 59.0795 79.2273C60.5644 80.3485 62.3826 80.9091 64.5341 80.9091C66.7765 80.9091 68.6477 80.3182 70.1477 79.1364C71.6629 77.9394 72.7992 76.3333 73.5568 74.3182C74.3295 72.2879 74.7159 70.0303 74.7159 67.5455C74.7159 65.0909 74.3371 62.8788 73.5795 60.9091C72.8371 58.9242 71.7083 57.3561 70.1932 56.2045C68.6932 55.0379 66.8068 54.4545 64.5341 54.4545C62.3523 54.4545 60.5189 55.0076 59.0341 56.1136C57.5492 57.2045 56.428 58.7348 55.6705 60.7045C54.9129 62.6591 54.5341 64.9394 54.5341 67.5455Z" fill="white"/>
</g>
<defs>
<linearGradient id="paint0_linear_279_15" x1="42" y1="0" x2="42" y2="123" gradientUnits="userSpaceOnUse">
<stop stop-color="#6066EE"/>
<stop offset="1" stop-color="#070C69"/>
</linearGradient>
</defs>
</svg>
