<svg width="22" height="22" viewBox="0 0 22 22" fill="none" xmlns="http://www.w3.org/2000/svg">
<path fill-rule="evenodd" clip-rule="evenodd" d="M20.1291 13.5071C21.0073 14.3853 21.5006 15.5763 21.5006 16.8181C21.5006 18.06 21.0073 19.251 20.1291 20.1291C19.251 21.0073 18.06 21.5006 16.8181 21.5006C15.5763 21.5006 14.3853 21.0073 13.5071 20.1291L4.02113 10.6431C3.47913 10.1011 3.16113 9.78314 2.88413 9.42714C2.55713 9.00914 2.27713 8.55714 2.04913 8.07714C1.85613 7.67114 1.71313 7.24314 1.47113 6.51714L0.361132 3.18514L0.093132 2.38314C-0.0133502 2.06417 -0.0288684 1.72184 0.0483189 1.39454C0.125506 1.06724 0.292345 0.767919 0.530128 0.530136C0.767911 0.292353 1.06724 0.125513 1.39453 0.0483254C1.72183 -0.0288619 2.06416 -0.0133443 2.38313 0.0931379L6.51613 1.47114C7.24313 1.71314 7.67113 1.85614 8.07813 2.04914C8.55713 2.27814 9.00913 2.55714 9.42813 2.88414C9.78213 3.16014 10.1011 3.47914 10.6431 4.02114L20.1291 13.5071ZM1.92913 3.15014L2.87713 5.99114C3.14113 6.78214 3.25413 7.11814 3.40313 7.43114C3.58513 7.81114 3.80713 8.17114 4.06613 8.50414C4.28013 8.77714 4.52913 9.02914 5.11913 9.61914L12.6891 17.1891C13.0569 16.1512 13.6529 15.2091 14.4331 14.4321C15.2103 13.6526 16.1524 13.0573 17.1901 12.6901L9.62013 5.12014C9.03113 4.53014 8.78013 4.28014 8.50613 4.06714C8.17336 3.80818 7.81361 3.5859 7.43313 3.40414C7.12013 3.25514 6.78413 3.14214 5.99313 2.87814L3.15013 1.93014L1.92913 3.15014ZM18.4071 13.9051C18.2321 13.9401 17.9941 13.9971 17.7171 14.0941C16.88 14.3866 16.1203 14.8653 15.4951 15.4941C14.8664 16.119 14.3877 16.8784 14.0951 17.7151C13.9981 17.9931 13.9411 18.2311 13.9061 18.4061L14.5681 19.0681C15.1656 19.6614 15.9738 19.9937 16.8158 19.9923C17.6578 19.9908 18.4649 19.6557 19.0603 19.0603C19.6556 18.4649 19.9908 17.6578 19.9923 16.8158C19.9937 15.9738 19.6614 15.1656 19.0681 14.5681L18.4071 13.9051Z" fill="white"/>
</svg>
